<svg width="47" height="33" viewBox="0 0 47 33" fill="none" xmlns="http://www.w3.org/2000/svg">
<path d="M38.4545 20.625V4.125C38.4545 1.85625 36.5318 0 34.1818 0H4.27273C1.92273 0 0 1.85625 0 4.125V20.625C0 22.8937 1.92273 24.75 4.27273 24.75H34.1818C36.5318 24.75 38.4545 22.8937 38.4545 20.625ZM19.2273 18.5625C15.6809 18.5625 12.8182 15.7987 12.8182 12.375C12.8182 8.95125 15.6809 6.1875 19.2273 6.1875C22.7736 6.1875 25.6364 8.95125 25.6364 12.375C25.6364 15.7987 22.7736 18.5625 19.2273 18.5625ZM47 6.1875V28.875C47 31.1437 45.0773 33 42.7273 33H6.40909V28.875H42.7273V6.1875H47Z" fill="white"/>
</svg>
