<svg width="20" height="17" viewBox="0 0 20 17" fill="none" xmlns="http://www.w3.org/2000/svg">
<path d="M15 7.32812C15 7.81758 14.874 8.27148 14.6221 8.68711C14.3701 9.10273 14.0332 9.42813 13.6084 9.65508C13.6201 9.72891 13.626 9.84375 13.626 9.99961C13.626 10.7406 13.3594 11.3695 12.832 11.8891C12.3018 12.4113 11.6631 12.6711 10.916 12.6711C10.582 12.6711 10.2627 12.6137 9.96094 12.4988C9.72656 12.9473 9.38965 13.3082 8.94727 13.5844C8.50781 13.8633 8.02441 14 7.5 14C6.96387 14 6.47754 13.866 6.04395 13.5926C5.60742 13.3219 5.27344 12.9582 5.03906 12.4988C4.7373 12.6137 4.4209 12.6711 4.08398 12.6711C3.33691 12.6711 2.69531 12.4113 2.15918 11.8891C1.62305 11.3695 1.35645 10.7379 1.35645 9.99961C1.35645 9.91758 1.36816 9.80273 1.38867 9.65508C0.963867 9.42539 0.626953 9.10273 0.375 8.68711C0.125977 8.27148 0 7.81758 0 7.32812C0 6.80859 0.140625 6.33008 0.418945 5.89805C0.697266 5.46602 1.07227 5.14609 1.54102 4.93828C1.41797 4.62656 1.35645 4.31211 1.35645 4.00039C1.35645 3.26211 1.62305 2.63047 2.15918 2.11094C2.69531 1.59141 3.33691 1.32891 4.08398 1.32891C4.41797 1.32891 4.7373 1.38633 5.03906 1.50117C5.27344 1.05273 5.61035 0.691797 6.05273 0.415625C6.49219 0.139453 6.97559 0 7.5 0C8.02441 0 8.50781 0.139453 8.94727 0.412891C9.38672 0.689063 9.72656 1.05 9.96094 1.49844C10.2627 1.38359 10.5791 1.32617 10.916 1.32617C11.6631 1.32617 12.3018 1.58594 12.832 2.1082C13.3623 2.63047 13.626 3.25937 13.626 3.99766C13.626 4.34219 13.5703 4.65391 13.459 4.93555C13.9277 5.14336 14.3027 5.46328 14.5811 5.89531C14.8594 6.33008 15 6.80859 15 7.32812ZM7.18066 9.43633L10.2773 5.10781C10.3564 4.99297 10.3799 4.86719 10.3535 4.7332C10.3242 4.59922 10.251 4.49258 10.1279 4.42148C10.0049 4.34766 9.87012 4.32305 9.72656 4.34219C9.58008 4.36406 9.46289 4.42969 9.375 4.54453L6.64746 8.37266L5.39062 7.20234C5.2793 7.09844 5.15039 7.04922 5.00684 7.05469C4.86035 7.06016 4.73438 7.10937 4.62305 7.20234C4.52344 7.29531 4.47363 7.41289 4.47363 7.55508C4.47363 7.69453 4.52344 7.81211 4.62305 7.90781L6.34863 9.51836L6.43359 9.58125C6.5332 9.64414 6.63574 9.67422 6.73535 9.67422C6.93164 9.67148 7.08105 9.59492 7.18066 9.43633Z" fill="#10E326" fill-opacity="0.72"/>
</svg>
