<svg width="43" height="37" viewBox="0 0 43 37" fill="none" xmlns="http://www.w3.org/2000/svg">
<path d="M21.3294 14.0952H25.5952V8.80952H31.994V5.28571H25.5952V0H21.3294V5.28571H14.9306V8.80952H21.3294V14.0952ZM12.7976 29.9524C10.4514 29.9524 8.55308 31.5381 8.55308 33.4762C8.55308 35.4143 10.4514 37 12.7976 37C15.1438 37 17.0635 35.4143 17.0635 33.4762C17.0635 31.5381 15.1438 29.9524 12.7976 29.9524ZM34.127 29.9524C31.7808 29.9524 29.8824 31.5381 29.8824 33.4762C29.8824 35.4143 31.7808 37 34.127 37C36.4732 37 38.3929 35.4143 38.3929 33.4762C38.3929 31.5381 36.4732 29.9524 34.127 29.9524ZM13.1602 24.2262L13.2242 24.0148L15.1438 21.1429H31.0342C32.6339 21.1429 34.0417 20.4205 34.7669 19.3281L43 6.97714L39.2887 5.28571H39.2674L36.9211 8.80952L31.0342 17.619H16.061L15.7837 17.1433L11.006 8.80952L8.97966 5.28571L6.9747 1.7619H0V5.28571H4.26587L11.9444 18.6586L9.06498 22.9752C8.72371 23.4686 8.53175 24.05 8.53175 24.6667C8.53175 26.6048 10.4514 28.1905 12.7976 28.1905H38.3929V24.6667H13.6935C13.4162 24.6667 13.1602 24.4729 13.1602 24.2262Z" fill="white"/>
</svg>
