<svg width="43" height="42" viewBox="0 0 43 42" fill="none" xmlns="http://www.w3.org/2000/svg">
<path d="M21.5 0C9.632 0 0 9.408 0 21C0 32.592 9.632 42 21.5 42C33.368 42 43 32.592 43 21C43 9.408 33.368 0 21.5 0ZM24.5315 33.789V37.8H18.791V33.747C15.1145 32.991 11.997 30.681 11.7605 26.607H15.9745C16.1895 28.812 17.7375 30.534 21.672 30.534C25.886 30.534 26.832 28.476 26.832 27.195C26.832 25.452 25.886 23.814 21.0915 22.701C15.7595 21.441 12.1045 19.299 12.1045 14.994C12.1045 11.382 15.093 9.03 18.791 8.253V4.2H24.5315V8.295C28.5305 9.24 30.53 12.201 30.659 15.414H26.445C26.3375 13.083 25.069 11.487 21.672 11.487C18.447 11.487 16.512 12.915 16.512 14.931C16.512 16.695 17.9095 17.85 22.2525 18.942C26.5955 20.034 31.2395 21.861 31.2395 27.153C31.218 30.996 28.2725 33.096 24.5315 33.789Z" fill="white"/>
</svg>
