<svg width="18" height="18" viewBox="0 0 18 18" fill="none" xmlns="http://www.w3.org/2000/svg">
<path d="M12 4.5C12 6.15782 10.6578 7.5 9 7.5C7.34218 7.5 6 6.15782 6 4.5C6 2.84218 7.34218 1.5 9 1.5C10.6578 1.5 12 2.84218 12 4.5ZM1.5 15.75C1.5 15.5528 1.58688 15.2691 2.00119 14.8867C2.42569 14.4949 3.08568 14.109 3.9314 13.7702C5.62525 13.0917 7.68564 12.75 9 12.75C10.3144 12.75 12.3747 13.0917 14.0686 13.7702C14.9143 14.109 15.5743 14.4949 15.9988 14.8867C16.4131 15.2691 16.5 15.5528 16.5 15.75V16.5H1.5V15.75Z" fill="white" stroke="#C9D7FC" stroke-width="3"/>
</svg>
