<svg width="38" height="38" viewBox="0 0 38 38" fill="none" xmlns="http://www.w3.org/2000/svg">
    <g clip-path="url(#clip0)">
        <path d="M33.5653 18.1492H31.9782C31.2751 15.9781 29.9153 14.0546 28.0927 12.553C27.7094 11.1783 28.1926 9.92103 28.7576 9.01965C29.1558 8.38457 28.6402 7.57528 27.8969 7.66778C24.8443 8.04733 23.6139 9.61739 23.0805 10.6963C23.0622 10.7332 23.0465 10.7722 23.0324 10.8125C23.0216 10.834 23.0108 10.8556 23.0004 10.8776C22.9353 11.0597 22.8644 11.2389 22.7885 11.4152C22.7881 11.4164 22.7876 11.4177 22.7872 11.4185C22.7818 11.4355 22.7764 11.4475 22.7715 11.4554C21.2981 14.8332 17.8866 17.1844 13.9683 17.1844C11.2343 17.1844 8.76993 16.032 7.03312 14.1874C6.32338 15.0224 5.73103 15.9383 5.27764 16.9164C3.95771 16.6762 3.11191 16.1639 2.58635 15.6089C3.45538 15.229 4.21987 14.6988 4.46751 14.1932C4.98271 13.1408 4.24683 12.4663 4.24683 12.4663C4.24683 12.4663 2.12425 10.3939 1.19466 13.4905C0.970658 14.2371 1.08515 14.9278 1.38796 15.5463C0.63715 15.879 0 16.1108 0 16.1108C0.434307 16.193 1.01712 16.1229 1.62025 15.9549C2.42291 17.1894 3.91333 18.0862 4.68653 18.4919C4.3999 19.4737 4.24683 20.5024 4.24683 21.5623C4.24683 22.4438 4.35303 23.3037 4.55338 24.1329L4.55255 24.1325C4.55255 24.1325 4.55587 24.1457 4.56292 24.1706C4.77406 25.0305 5.08641 25.8581 5.49002 26.6412C6.02306 27.7911 6.8 29.138 7.86108 30.2306C9.39879 31.8135 9.66302 33.7776 9.7016 34.6263V34.9951C9.7016 35.0109 9.70326 35.0266 9.70409 35.0424C9.70367 35.0478 9.70367 35.0503 9.70367 35.0503L9.7045 35.0494C9.73271 35.4676 10.0799 35.7982 10.5051 35.7982H15.4044C15.8479 35.7982 16.2075 35.4385 16.2075 34.9951V33.7851C16.9164 33.8809 17.6432 33.9307 18.3828 33.9307C18.9606 33.9307 19.5297 33.8996 20.0893 33.8407V34.9947C20.0893 35.4381 20.4489 35.7978 20.8924 35.7978H25.7917C26.2351 35.7978 26.5948 35.4381 26.5948 34.9947V33.7834C26.6047 33.3802 26.742 31.7907 28.2374 30.428C28.3084 30.3675 28.3789 30.3065 28.4482 30.2451C28.454 30.2401 28.4598 30.2352 28.466 30.2302L28.4635 30.2314C30.146 28.734 31.3954 26.8636 32.0359 24.7746H33.5665C34.107 24.7746 34.5455 24.3365 34.5455 23.7956V19.1282C34.5442 18.5877 34.1058 18.1492 33.5653 18.1492ZM1.82641 13.6859C2.24703 11.8918 3.84115 12.855 3.76897 13.8962C3.74284 14.2736 3.02563 14.742 2.2238 15.1506C1.83015 14.5412 1.76295 13.9555 1.82641 13.6859ZM25.7303 17.1989C25.7303 16.5298 26.2729 15.9876 26.9416 15.9876C27.6106 15.9876 28.1528 16.5302 28.1528 17.1989C28.1528 17.868 27.6106 18.4101 26.9416 18.4101C26.2725 18.4106 25.7303 17.868 25.7303 17.1989ZM6.30679 7.66114C6.30679 3.43007 9.73686 0 13.9679 0C18.199 0 21.6291 3.43007 21.6291 7.66114C21.6291 11.8922 18.199 15.3223 13.9679 15.3223C9.73686 15.3223 6.30679 11.8922 6.30679 7.66114Z" fill="white"/>
    </g>
    <defs>
        <clipPath id="clip0">
            <rect width="38" height="38" fill="white"/>
        </clipPath>
    </defs>
</svg>
